<?xml version="1.0" encoding="iso-8859-1"?>
<!-- Generator: Adobe Illustrator 18.0.0, SVG Export Plug-In . SVG Version: 6.00 Build 0)  -->
<!DOCTYPE svg PUBLIC "-//W3C//DTD SVG 1.1//EN" "http://www.w3.org/Graphics/SVG/1.1/DTD/svg11.dtd">
<svg xmlns="http://www.w3.org/2000/svg" xmlns:xlink="http://www.w3.org/1999/xlink" version="1.1" id="Capa_1" x="0px" y="0px" viewBox="0 0 432.125 432.125" style="enable-background:new 0 0 432.125 432.125;" xml:space="preserve" width="512px" height="512px">
<g>
	<path d="M406.78,208.275c7.126-19.578,12.789-48.448-0.697-74.808c-5.125-10.015-7.796-21.759-7.725-33.963   c0.187-31.667,0.669-64.652,1.042-86.746c0.088-5.164-2.935-9.787-7.7-11.778c-4.772-1.992-10.192-0.893-13.809,2.806   l-49.628,50.73c-10.103-2.558-39.394-7.809-74.552,5.396c-14.006-13.591-40.241-36.662-55.277-49.761   c-3.846-3.351-9.09-4.055-13.681-1.838c-4.529,2.185-7.309,6.843-7.083,11.867l3.552,79.032   c0.814,18.116-0.536,36.092-4.012,53.428c-3.788,18.883-7.792,46.504-6.298,74.039c-13.692,1.162-43.957,6.638-74.687,31.523   c-40.715,32.974-67.06,86.697-78.3,159.679c-0.504,3.274,1.742,6.339,5.017,6.843c3.281,0.503,6.339-1.741,6.844-5.017   c10.772-69.941,35.667-121.142,73.992-152.179c34.259-27.745,67.275-29.15,73.546-29.15c1.68,0,3.284-0.705,4.42-1.942   c1.137-1.238,1.702-2.896,1.558-4.57c-2.412-28.131,1.754-57.327,5.674-76.866c3.668-18.288,5.093-37.239,4.235-56.326   l-3.552-79.032c-0.007-0.145-0.017-0.363,0.309-0.521c0.315-0.152,0.471-0.02,0.583,0.079   c15.995,13.933,44.731,39.211,57.482,51.961c1.709,1.709,4.275,2.226,6.511,1.312c40.117-16.382,73.263-5.637,73.581-5.53   c2.184,0.742,4.604,0.166,6.22-1.485l52.123-53.28c0.109-0.113,0.26-0.268,0.604-0.125c0.334,0.14,0.331,0.341,0.328,0.503   c-0.373,22.125-0.857,55.157-1.044,86.879c-0.082,14.12,3.044,27.779,9.041,39.5c11.519,22.511,6.415,47.9,0.104,65.237   c-5.905,16.228-6.818,33.813-2.64,50.854c8.627,35.178,17.514,103.791-19.909,168.081c-1.667,2.864-0.696,6.537,2.167,8.204   c0.95,0.553,1.988,0.815,3.013,0.815c2.066,0,4.077-1.068,5.191-2.982c39.544-67.935,30.251-140.041,21.192-176.976   C400.907,237.441,401.689,222.263,406.78,208.275z" fill="#FFFFFF"/>
	<path d="M273.914,149.488c0,3.313,2.687,6,6,6s6-2.687,6-6c0-13.51-10.99-24.5-24.5-24.5c-13.51,0-24.5,10.99-24.5,24.5   c0,3.313,2.687,6,6,6s6-2.687,6-6c0-6.893,5.607-12.5,12.5-12.5C268.306,136.988,273.914,142.595,273.914,149.488z" fill="#FFFFFF"/>
	<path d="M345.417,124.988c-13.51,0-24.5,10.99-24.5,24.5c0,3.313,2.687,6,6,6s6-2.687,6-6c0-6.893,5.607-12.5,12.5-12.5   s12.5,5.607,12.5,12.5c0,3.313,2.687,6,6,6s6-2.687,6-6C369.917,135.978,358.927,124.988,345.417,124.988z" fill="#FFFFFF"/>
	<path d="M354.909,182.517c-3.313,0-6,2.687-6,6c0,9.5-7.729,17.229-17.229,17.229s-17.229-7.729-17.229-17.229c0-3.313-2.687-6-6-6   s-6,2.687-6,6c0,9.5-7.729,17.229-17.229,17.229s-17.229-7.729-17.229-17.229c0-3.313-2.687-6-6-6s-6,2.687-6,6   c0,16.116,13.112,29.229,29.229,29.229c9.459,0,17.883-4.517,23.229-11.506c5.346,6.989,13.771,11.506,23.229,11.506   c16.116,0,29.229-13.112,29.229-29.229C360.909,185.204,358.222,182.517,354.909,182.517z" fill="#FFFFFF"/>
</g>
<g>
</g>
<g>
</g>
<g>
</g>
<g>
</g>
<g>
</g>
<g>
</g>
<g>
</g>
<g>
</g>
<g>
</g>
<g>
</g>
<g>
</g>
<g>
</g>
<g>
</g>
<g>
</g>
<g>
</g>
</svg>
