<?xml version="1.0" encoding="iso-8859-1"?>
<!-- Generator: Adobe Illustrator 19.0.0, SVG Export Plug-In . SVG Version: 6.00 Build 0)  -->
<svg version="1.1" id="Capa_1" xmlns="http://www.w3.org/2000/svg" xmlns:xlink="http://www.w3.org/1999/xlink" x="0px" y="0px"
	 viewBox="0 0 512 512" style="enable-background:new 0 0 512 512;" xml:space="preserve">
<circle style="fill:#1E499E;" cx="256" cy="256" r="256"/>
<path style="fill:#0E387C;" d="M512,256c0-16.341-1.55-32.319-4.476-47.809L384.333,85l-17.015,32.318l-44.985-44.985
	L127.667,417.667l91.715,91.715C231.343,511.095,243.565,512,256,512C397.385,512,512,397.385,512,256z"/>
<rect x="127.67" y="85" style="fill:#FABF2D;" width="256.67" height="332.67"/>
<rect x="255.95" y="85" style="fill:#F8A725;" width="128.38" height="332.67"/>
<rect x="150.33" y="105.58" style="fill:#FFFFFF;" width="211.33" height="291.5"/>
<rect x="255.95" y="105.58" style="fill:#EBEEF0;" width="105.71" height="291.5"/>
<rect x="189.67" y="72.33" style="fill:#FEF076;" width="132.67" height="42"/>
<rect x="255.95" y="72.33" style="fill:#FED500;" width="66.38" height="42"/>
<rect x="231" y="173.54" style="fill:#98B4B6;" width="108.5" height="11.5"/>
<rect x="255.95" y="173.54" style="fill:#819899;" width="83.55" height="11.5"/>
<rect x="231" y="242.54" style="fill:#98B4B6;" width="108.5" height="11.5"/>
<rect x="255.95" y="242.54" style="fill:#819899;" width="83.55" height="11.5"/>
<rect x="231" y="311.54" style="fill:#98B4B6;" width="108.5" height="11.5"/>
<rect x="255.95" y="311.54" style="fill:#819899;" width="83.55" height="11.5"/>
<g>
	<polygon style="fill:#83E276;" points="184.732,201.981 164.367,180.161 176.795,168.562 185.561,177.954 210.38,154.79 
		221.979,167.218 	"/>
	<polygon style="fill:#83E276;" points="184.732,270.267 164.367,248.446 176.795,236.847 185.561,246.239 210.38,223.075 
		221.979,235.503 	"/>
	<polygon style="fill:#83E276;" points="184.732,338.552 164.367,316.731 176.795,305.132 185.561,314.524 210.38,291.36 
		221.979,303.788 	"/>
</g>
<g>
</g>
<g>
</g>
<g>
</g>
<g>
</g>
<g>
</g>
<g>
</g>
<g>
</g>
<g>
</g>
<g>
</g>
<g>
</g>
<g>
</g>
<g>
</g>
<g>
</g>
<g>
</g>
<g>
</g>
</svg>
