<?xml version="1.0" encoding="UTF-8" standalone="no"?>
<svg  viewBox="0 0 24 27" version="1.1" xmlns="http://www.w3.org/2000/svg" xmlns:xlink="http://www.w3.org/1999/xlink">
	
    <g id="Contact" stroke="none" stroke-width="1" fill="none" fill-rule="evenodd">
        <g id="ContactUs_ok-Copy-10" transform="translate(-224.000000, -4.000000)" fill="#F21A03">
            <g id="Group-4" transform="translate(224.000000, 4.000000)">
             
                <path d="M22.4562,5.7110655 L7.0837,20.9964655 L5.94165,19.8609155 L22.4562,3.4380155 L22.4562,5.7110655 L22.4562,5.7110655 Z M11.04415,24.9354655 L9.9008,23.7986155 L19.49415,14.2585655 L19.50325,14.2494655 L19.50325,16.5231655 L11.04415,24.9354655 L11.04415,24.9354655 Z M7.92155,21.8291155 L18.6264,11.1840655 L20.6427,9.1541155 L20.6427,11.4278155 L19.8796,12.2006655 L19.50325,12.5828655 L19.36935,12.7180655 L9.0636,22.9653155 L7.92155,21.8291155 L7.92155,21.8291155 Z M22.4562,1.7740155 L15.3699,8.8193655 L3.2968,8.8193655 L-1.77635684e-15,15.6170655 L4.26725,19.8609155 L5.10445,20.6922655 L6.2465,21.8291155 L7.0837,22.6611155 L8.22705,23.7986155 L11.04415,26.6001155 L20.67715,17.0210655 L20.67715,12.7018155 L21.8231,11.5376655 L21.8231,7.9802155 L22.4562,7.3763655 L23.63595,6.2024655 L23.63595,0.600115502 L22.4562,1.7740155 L22.4562,1.7740155 Z" id="Fill-1"></path>
            </g>
        </g>
    </g>
</svg>
