<?xml version="1.0" encoding="iso-8859-1"?>
<!-- Generator: Adobe Illustrator 19.0.0, SVG Export Plug-In . SVG Version: 6.00 Build 0)  -->
<svg version="1.1" id="Capa_1" xmlns="http://www.w3.org/2000/svg" xmlns:xlink="http://www.w3.org/1999/xlink" x="0px" y="0px"
	 viewBox="0 0 512 512" style="enable-background:new 0 0 512 512;" xml:space="preserve">
<path style="fill:#5897D1;" d="M512,256c0,43.959-11.076,85.326-30.605,121.469c-4.974,9.237-10.512,18.129-16.562,26.634
	C418.45,469.4,342.194,512,256,512c-58.065,0-111.595-19.32-154.54-51.9c-9.415-7.126-18.317-14.9-26.645-23.249
	c-10.094-10.115-19.352-21.065-27.648-32.747c-6.05-8.505-11.588-17.398-16.562-26.634C11.076,341.326,0,299.959,0,256
	c0-70.604,28.578-134.541,74.815-180.851C83.143,66.8,92.045,59.026,101.46,51.9C144.405,19.32,197.935,0,256,0
	C397.385,0,512,114.615,512,256z"/>
<path style="fill:#9FC5E6;" d="M474.108,218.108c0,37.452-9.436,72.697-26.075,103.49c-4.237,7.87-8.956,15.446-14.11,22.692
	C394.404,399.92,329.435,436.216,256,436.216c-49.471,0-95.077-16.46-131.665-44.218c-8.021-6.072-15.606-12.694-22.701-19.808
	c-8.6-8.617-16.487-17.947-23.555-27.9c-5.154-7.246-9.872-14.822-14.11-22.692c-16.639-30.793-26.075-66.038-26.075-103.49
	c0-60.154,24.348-114.626,63.741-154.082c7.095-7.113,14.68-13.736,22.701-19.808C160.923,16.46,206.529,0,256,0
	C376.458,0,474.108,97.65,474.108,218.108z"/>
<path style="fill:#F9DF73;" d="M345.428,80.882h-9.627c-2.66,0-4.817,2.157-4.817,4.817v301.93h-73.143V85.7
	c0-2.66-2.157-4.817-4.817-4.817h-9.634c-12.18,0-18.279-14.727-9.666-23.339L283.015,8.26c6.296-6.294,16.501-6.294,22.796,0.001
	l49.285,49.285C363.706,66.158,357.607,80.882,345.428,80.882z"/>
<path style="fill:#F0F0F0;" d="M259.543,239.048h-11.756c-3.25,0-5.883,2.634-5.883,5.883v147.401H152.58V244.93
	c0-3.25-2.634-5.883-5.883-5.883h-11.766c-14.874,0-22.323-17.985-11.804-28.502l60.196-60.188
	c7.687-7.687,20.151-7.686,27.838,0.001l60.188,60.188C281.866,221.065,274.417,239.048,259.543,239.048z"/>
<path style="fill:#EF487D;" d="M483.387,157.094h-13.065c-3.611,0-6.538,2.927-6.538,6.538v230.022h-99.268V163.632
	c0-3.611-2.927-6.538-6.538-6.538h-13.076c-16.53,0-24.808-19.987-13.119-31.675L398.68,58.53
	c8.543-8.542,22.394-8.542,30.937,0.001l66.889,66.889C508.194,137.109,499.916,157.094,483.387,157.094z"/>
<g>
	<path style="fill:#484B7F;" d="M101.46,0v460.1c-9.415-7.126-18.317-14.9-26.645-23.249V0H101.46z"/>
	<path style="fill:#484B7F;" d="M481.395,377.469c-4.974,9.237-10.512,18.129-16.562,26.634H47.167
		c-6.05-8.505-11.588-17.398-16.562-26.634H481.395z"/>
</g>
<g>
</g>
<g>
</g>
<g>
</g>
<g>
</g>
<g>
</g>
<g>
</g>
<g>
</g>
<g>
</g>
<g>
</g>
<g>
</g>
<g>
</g>
<g>
</g>
<g>
</g>
<g>
</g>
<g>
</g>
</svg>
