<svg xmlns="http://www.w3.org/2000/svg" xmlns:xlink="http://www.w3.org/1999/xlink" version="1.1" id="Capa_1" x="0px" y="0px" viewBox="0 0 512 512" style="enable-background:new 0 0 512 512;" xml:space="preserve" width="512" height="512">
<g>
	<g>
		<circle style="fill:#65B2FF;" cx="256" cy="256" r="256"/>
		<path style="fill:#0F9BE8;" d="M512,256c0,141.38-114.62,256-256,256S0,397.38,0,256c0-46.22,12.25-89.57,33.68-127    C77.8,206.07,160.84,258,256,258s178.21-51.93,222.32-129C499.75,166.43,512,209.78,512,256z"/>
		<path style="fill:#0066E8;" d="M481.26,377.7v0.01C437.97,457.68,353.32,512,256,512S74.03,457.68,30.74,377.71v-0.01H481.26z"/>
	</g>
	<g>
		<g>
			<g>
				<path style="fill:#474F6F;" d="M149.99,198.51v42.56c0,9.9-5.28,19.06-13.86,24.01l-21.67,12.51l10.16,193.07      c0.03,0.71,0.05,1.41,0.05,2.11c0,0.99-0.04,1.98-0.11,2.95c-5.32-3.19-10.52-6.57-15.58-10.13      c-8.22-5.77-16.09-12.02-23.56-18.7c-0.01-0.01-0.01-0.01-0.01-0.01c-7.51-6.71-14.61-13.86-21.28-21.41      c-5.14-5.81-10.02-11.86-14.62-18.13l6.82-129.77L34.7,265.08c-8.58-4.95-13.87-14.11-13.87-24.01v-42.56      c0-9.9,5.29-19.05,13.87-24.01l14.37-8.3c3.88-2.24,8.73,0.57,8.73,5.05v41.91c0,4.23,2.26,8.14,5.93,10.26l15.76,9.1      c1.83,1.06,3.88,1.59,5.92,1.59c2.05,0,4.1-0.53,5.93-1.59l15.76-9.1c3.67-2.12,5.93-6.03,5.93-10.26v-41.91      c0-4.48,4.85-7.29,8.73-5.05l14.37,8.3C144.71,179.46,149.99,188.61,149.99,198.51z"/>
				<path style="fill:#323B5A;" d="M149.99,198.51v42.56c0,9.9-5.28,19.06-13.86,24.01l-21.67,12.51l10.16,193.07      c0.03,0.71,0.05,1.41,0.05,2.11c0,0.99-0.04,1.98-0.11,2.95c-5.32-3.19-10.52-6.57-15.58-10.13      c-8.22-5.77-16.09-12.02-23.56-18.7c-0.01-0.01-0.01-0.01-0.01-0.01V234.11c2.05,0,4.1-0.53,5.93-1.59l15.76-9.1      c3.67-2.12,5.93-6.03,5.93-10.26v-41.91c0-4.48,4.85-7.29,8.73-5.05l14.37,8.3C144.71,179.46,149.99,188.61,149.99,198.51z"/>
			</g>
			<path style="fill:#323B5A;" d="M108.98,465.59c-8.22-5.77-16.09-12.02-23.56-18.7c-0.01-0.01-0.01-0.01-0.01-0.01     c-7.51-6.71-14.61-13.86-21.28-21.41l5.44-95.95c0.47-8.4,7.42-14.97,15.84-14.98h0.01c4.2,0,8.05,1.65,10.89,4.34     c2.86,2.69,4.71,6.44,4.95,10.64L108.98,465.59z"/>
			<path style="fill:#20273A;" d="M108.98,465.59c-8.22-5.77-16.09-12.02-23.56-18.7V314.54c4.2,0,8.05,1.65,10.89,4.34     c2.86,2.69,4.71,6.44,4.95,10.64L108.98,465.59z"/>
		</g>
		<g>
			<rect x="181.901" y="196.689" style="fill:#474F6F;" width="21.287" height="227.196"/>
			<rect x="192.543" y="196.689" style="fill:#323B5A;" width="10.646" height="227.196"/>
			<rect x="181.901" y="196.689" style="fill:#323B5A;" width="21.287" height="40.448"/>
			<rect x="192.543" y="196.689" style="fill:#20273A;" width="10.646" height="40.448"/>
			<path style="fill:#FFD112;" d="M192.54,511.96c0.41,0.03,0.83,0.04,1.25,0.04h-1.25V511.96z"/>
			<path style="fill:#FFD112;" d="M227.38,357.73v135.25c0,6.88-3.66,12.91-9.13,16.25c-8.72-1.28-17.3-3.01-25.71-5.16     c-5.66-1.44-11.24-3.07-16.74-4.89c-6.14-2.02-12.17-4.27-18.09-6.74V357.73c0-10.5,8.52-19.02,19.03-19.02h31.62     C218.86,338.71,227.38,347.23,227.38,357.73z"/>
			<path style="fill:#FF9F00;" d="M227.38,357.73v135.25c0,6.88-3.66,12.91-9.13,16.25c-8.72-1.28-17.3-3.01-25.71-5.16     c-5.66-1.44-11.24-3.07-16.74-4.89c-0.68-1.94-1.04-4.03-1.04-6.2V357.73c0-6.01,2.79-11.37,7.14-14.85     c2.96-2.37,6.63-3.87,10.64-4.13c0.41-0.03,0.83-0.04,1.25-0.04h14.57C218.86,338.71,227.38,347.23,227.38,357.73z"/>
			<path style="fill:#474F6F;" d="M208.546,206.152c-0.78,3.578-2.712,6.657-5.358,8.893c-0.125,0.105-0.25,0.211-0.379,0.312     c-2.837,2.263-6.427,3.59-10.263,3.59h-0.004c-4.008,0-7.75-1.448-10.642-3.902c-2.646-2.236-4.577-5.315-5.358-8.893     c-2.872-13.221-1.456-27.145,4.257-39.671l5.1-11.188c1.296-2.849,3.973-4.273,6.642-4.273c2.677,0,5.346,1.424,6.646,4.273     l5.1,11.188C210.002,179.007,211.418,192.931,208.546,206.152z"/>
			<path style="fill:#323B5A;" d="M192.543,218.948v-67.929c2.677,0,5.346,1.424,6.646,4.273l5.1,11.188     c5.713,12.527,7.13,26.45,4.257,39.671c-0.78,3.578-2.712,6.657-5.358,8.894L192.543,218.948z"/>
			<path style="fill:#ED771B;" d="M192.54,511.96c0.41,0.03,0.83,0.04,1.25,0.04h-1.25V511.96z"/>
			<path style="fill:#ED771B;" d="M227.38,357.73v135.25c0,6.88-3.66,12.91-9.13,16.25c-8.72-1.28-17.3-3.01-25.71-5.16V338.71     h15.82C218.86,338.71,227.38,347.23,227.38,357.73z"/>
		</g>
	</g>
	<g>
		<g>
			<g>
				<path style="fill:#474F6F;" d="M512,256c0,38.71-8.59,75.41-23.98,108.31H264.07c-5.4,0-9.78-4.39-9.78-9.8v-184.1      c0-5.41,4.38-9.79,9.78-9.79h229.56C505.48,190.1,512,222.29,512,256z"/>
				<path style="fill:#323B5A;" d="M512,256c0,38.71-8.59,75.41-23.98,108.31h-84.09V160.62h89.7C505.48,190.1,512,222.29,512,256z"/>
			</g>
		</g>
		<g>
			<path style="fill:#FFFFFF;" d="M304.806,214.787l-17.058-7.076c-1.266-0.525-2.091-1.761-2.091-3.131v-1.698     c0-1.369,0.824-2.604,2.089-3.13l17.057-7.088c2.232-0.928,4.69,0.713,4.69,3.13v0.041c0,1.402-0.863,2.659-2.171,3.163     l-12.316,4.747l12.316,4.749c1.308,0.504,2.17,1.761,2.17,3.162v0C309.494,214.072,307.038,215.712,304.806,214.787z"/>
			<path style="fill:#FFFFFF;" d="M321.471,187.842h2.281c1.659,0,2.881,1.553,2.489,3.166l-6.475,26.66     c-0.279,1.148-1.307,1.957-2.489,1.957h-2.245c-1.658,0-2.879-1.551-2.49-3.163l6.439-26.66     C319.259,188.653,320.288,187.842,321.471,187.842z"/>
			<path style="fill:#FFFFFF;" d="M331.319,208.493l12.316-4.749l-12.316-4.747c-1.308-0.504-2.171-1.761-2.171-3.163v-0.041     c0-2.417,2.458-4.058,4.69-3.13l17.058,7.088c1.265,0.526,2.089,1.76,2.089,3.13v1.698c0,1.37-0.825,2.606-2.091,3.131     l-17.057,7.076c-2.232,0.926-4.688-0.714-4.688-3.131v0C329.149,210.254,330.012,208.997,331.319,208.493z"/>
		</g>
		<path style="fill:#DD1265;" d="M319.726,244.206h-27.736c-3.498,0-6.333-2.836-6.333-6.333v0c0-3.498,2.836-6.333,6.333-6.333    h27.736c3.498,0,6.333,2.836,6.333,6.333v0C326.06,241.37,323.224,244.206,319.726,244.206z"/>
		<path style="fill:#FFD112;" d="M393.673,287.206h-27.736c-3.498,0-6.333-2.836-6.333-6.333v0c0-3.498,2.836-6.333,6.333-6.333    h27.736c3.498,0,6.333,2.836,6.333,6.333v0C400.006,284.37,397.171,287.206,393.673,287.206z"/>
		<path style="fill:#FFFFFF;" d="M457.521,244.206H342.491c-3.498,0-6.333-2.836-6.333-6.333v0c0-3.498,2.836-6.333,6.333-6.333    h115.031c3.498,0,6.333,2.836,6.333,6.333v0C463.855,241.37,461.019,244.206,457.521,244.206z"/>
		<path style="fill:#FFFFFF;" d="M407.021,265.706H291.991c-3.498,0-6.333-2.836-6.333-6.333v0c0-3.498,2.836-6.333,6.333-6.333    h115.031c3.498,0,6.333,2.836,6.333,6.333v0C413.355,262.87,410.519,265.706,407.021,265.706z"/>
		<path style="fill:#FFFFFF;" d="M343.736,287.206h-51.746c-3.498,0-6.333-2.836-6.333-6.333v0c0-3.498,2.836-6.333,6.333-6.333    h51.746c3.498,0,6.333,2.836,6.333,6.333v0C350.07,284.37,347.234,287.206,343.736,287.206z"/>
		<path style="fill:#FFFFFF;" d="M407.021,308.706H291.991c-3.498,0-6.333-2.836-6.333-6.333v0c0-3.498,2.836-6.333,6.333-6.333    h115.031c3.498,0,6.333,2.836,6.333,6.333v0C413.355,305.87,410.519,308.706,407.021,308.706z"/>
		<path style="fill:#FFFFFF;" d="M436.129,308.706h-14.721c-1.335,0-2.417-1.082-2.417-2.417l0,0c0-1.335,1.082-2.417,2.417-2.417    h14.721c1.335,0,2.417,1.082,2.417,2.417l0,0C438.546,307.624,437.464,308.706,436.129,308.706z"/>
	</g>
</g>















</svg>
